<svg xmlns="http://www.w3.org/2000/svg" xmlns:xlink="http://www.w3.org/1999/xlink" viewBox="0 0 356.53 400.87"><defs><style>.cls-1{fill:url(#linear-gradient);}.cls-2{fill:url(#linear-gradient-2);}</style><linearGradient id="linear-gradient" x1="201.4" y1="17.43" x2="60.57" y2="366.01" gradientUnits="userSpaceOnUse"><stop offset="0.24" stop-color="#f2d948"/><stop offset="1" stop-color="#f7941d"/></linearGradient><linearGradient id="linear-gradient-2" x1="174.1" y1="8.65" x2="292.16" y2="372.03" xlink:href="#linear-gradient"/></defs><g id="Layer_2" data-name="Layer 2"><g id="Layer_1-2" data-name="Layer 1"><path class="cls-1" d="M104.91,116a179.31,179.31,0,0,1,66.32-25.37V5.5S165.15,0,128.43,0c-39.72,0-57.2,28-57.2,51.46,0,17.14,3.59,31.08,16.61,47.08C43.18,123.39,0,167.55,0,236.78,0,353.22,124.38,400.87,171.23,400.87V112.75a70.79,70.79,0,0,0-32.62,12V376.71S37.88,335.3,37.88,238C37.88,180.13,67.33,140,104.91,116Zm.34-95.74c10.55-8.33,20.42-7.27,33-5.89V78.22s-10.6,2.16-14.33,4.32c0,0-19.56-16.12-24.15-25.72C93,42.59,96.85,26.94,105.25,20.3Z"/><path class="cls-2" d="M318.65,238c0,97.31-100.73,138.72-100.73,138.72V124.78a70.79,70.79,0,0,0-32.62-12V400.87c46.85,0,171.23-47.65,171.23-164.09,0-69.23-43.18-113.39-87.84-138.24,13-16,16.61-29.94,16.61-47.08C285.3,28,267.82,0,228.1,0c-36.72,0-42.8,5.5-42.8,5.5V90.67A179.31,179.31,0,0,1,251.62,116C289.2,140,318.65,180.13,318.65,238ZM256.77,56.82c-4.59,9.6-24.15,25.72-24.15,25.72-3.73-2.16-14.33-4.32-14.33-4.32V14.41c12.57-1.38,22.44-2.44,33,5.89C259.68,26.94,263.57,42.59,256.77,56.82Z"/></g></g></svg>